<svg aria-hidden="true" style="position: absolute; width: 0; height: 0; overflow: hidden;" version="1.1" xmlns="http://www.w3.org/2000/svg" xmlns:xlink="http://www.w3.org/1999/xlink">
<defs>
<symbol id="kedr-icon-left" viewBox="0 0 32 32">
<path d="M12.586 27.414l-10-10c-0.781-0.781-0.781-2.047 0-2.828l10-10c0.781-0.781 2.047-0.781 2.828 0s0.781 2.047 0 2.828l-6.586 6.586h19.172c1.105 0 2 0.895 2 2s-0.895 2-2 2h-19.172l6.586 6.586c0.39 0.39 0.586 0.902 0.586 1.414s-0.195 1.024-0.586 1.414c-0.781 0.781-2.047 0.781-2.828 0z"></path>
</symbol>
<symbol id="kedr-icon-right" viewBox="0 0 32 32">
<path d="M19.414 27.414l10-10c0.781-0.781 0.781-2.047 0-2.828l-10-10c-0.781-0.781-2.047-0.781-2.828 0s-0.781 2.047 0 2.828l6.586 6.586h-19.172c-1.105 0-2 0.895-2 2s0.895 2 2 2h19.172l-6.586 6.586c-0.39 0.39-0.586 0.902-0.586 1.414s0.195 1.024 0.586 1.414c0.781 0.781 2.047 0.781 2.828 0z"></path>
</symbol>
<symbol id="kedr-icon-next" viewBox="0 0 20 32">
<path d="M19.636 16v0l-16 16-1.527-1.527 14.473-14.473-14.473-14.473 1.527-1.527 16 16z"></path>
</symbol>
<symbol id="kedr-icon-prev" viewBox="0 0 20 32">
<path d="M0 16l16-16 1.527 1.527-14.473 14.473 14.473 14.473-1.527 1.527-16-16z"></path>
</symbol>
<symbol id="kedr-icon-chevron" viewBox="0 0 32 32">
<path d="M16 18.644v0 0l10.887-10.45c0.269-0.263 0.712-0.256 0.988 0.012l1.913 1.869c0.275 0.269 0.281 0.706 0.012 0.969l-13.294 12.762c-0.137 0.137-0.325 0.2-0.506 0.188-0.188 0.006-0.369-0.056-0.506-0.188l-13.294-12.762c-0.269-0.262-0.262-0.7 0.013-0.969l1.913-1.869c0.275-0.269 0.719-0.275 0.987-0.012l10.887 10.45z"></path>
</symbol>
<symbol id="kedr-icon-youtube" viewBox="0 0 32 32">
<path d="M31.331 8.248c-0.377-1.389-1.444-2.462-2.801-2.841l-0.028-0.007c-2.495-0.673-12.501-0.673-12.501-0.673s-10.007 0-12.503 0.673c-1.384 0.387-2.451 1.46-2.821 2.82l-0.007 0.028c-0.669 2.512-0.669 7.752-0.669 7.752s0 5.24 0.669 7.752c0.377 1.389 1.444 2.462 2.801 2.841l0.028 0.007c2.495 0.673 12.501 0.673 12.501 0.673s10.007 0 12.503-0.673c1.385-0.386 2.452-1.459 2.823-2.82l0.007-0.028c0.668-2.512 0.668-7.752 0.668-7.752s0-5.24-0.669-7.752zM12.727 20.757v-9.515l8.364 4.757-8.364 4.757z"></path>
</symbol>
<symbol id="kedr-icon-vkontakte" viewBox="0 0 32 32">
<path d="M2.249 2.249c2.249-2.249 5.87-2.249 13.111-2.249h1.28c7.241 0 10.861 0 13.111 2.249s2.249 5.87 2.249 13.111v1.28c0 7.241 0 10.861-2.249 13.111s-5.87 2.249-13.111 2.249h-1.28c-7.241 0-10.861 0-13.111-2.249s-2.249-5.87-2.249-13.111v-1.28c0-7.241 0-10.861 2.249-13.111zM5.382 9.745c0.173 8.313 4.326 13.309 11.606 13.309h0.413v-4.756c2.675 0.267 4.698 2.225 5.51 4.756h3.78c-1.039-3.783-3.767-5.875-5.471-6.675 1.704-0.985 4.1-3.383 4.672-6.634h-3.434c-0.745 2.638-2.955 5.036-5.057 5.263v-5.263h-3.434v9.219c-2.129-0.533-4.818-3.117-4.938-9.219h-3.647z"></path>
</symbol>
<symbol id="kedr-icon-search" viewBox="0 0 32 32">
<path d="M22.667 3.867c-5.2-5.2-13.6-5.2-18.8 0s-5.2 13.6 0 18.8c4.667 4.667 11.867 5.067 17.067 1.467l8 8 3.067-3.067-8-8c3.733-5.333 3.2-12.533-1.333-17.2v0zM7.067 19.467c-3.467-3.467-3.467-9.067 0-12.533s9.067-3.467 12.533 0c3.467 3.467 3.467 9.067 0 12.533-3.6 3.467-9.2 3.467-12.533 0v0z"></path>
</symbol>
<symbol id="kedr-icon-facebook" viewBox="0 0 32 32">
<path d="M31.989 15.989c0-8.838-7.162-16-16-16s-16 7.162-16 16c0 7.99 5.858 14.613 13.495 15.814v-11.177h-4.057v-4.616h4.057v-3.519c0-4.015 2.38-6.23 6.044-6.23 1.759 0 3.581 0.311 3.581 0.311v3.933h-2.008c-1.987 0-2.608 1.242-2.608 2.504v3.001h4.429l-0.704 4.616h-3.726v11.177c7.658-1.2 13.495-7.824 13.495-15.814v0z"></path>
</symbol>
<symbol id="kedr-icon-dzen" viewBox="0 0 32 32">
<path d="M30.954 16.228c0 1.325 0.065 2.585-0.022 3.844-0.109 1.825-0.239 3.649-0.543 5.43-0.478 2.824-2.237 4.409-5.039 4.952-2.215 0.434-4.453 0.456-6.69 0.5-0.673 0-1.347 0-1.998 0-0.239 0-0.413-0.043-0.413-0.348 0.087-2.758 0.043-5.538 0.76-8.232 0.804-2.997 2.802-4.8 5.778-5.474 2.672-0.608 5.387-0.565 8.167-0.673z"></path>
<path d="M1.002 16.228c2.911 0.13 5.712 0.043 8.449 0.76 3.236 0.825 5.061 2.997 5.691 6.212 0.478 2.411 0.521 4.843 0.565 7.298 0 0.239 0.022 0.478-0.348 0.478-2.954-0.065-5.929 0.13-8.862-0.521-0.434-0.087-0.869-0.239-1.303-0.391-2.172-0.739-3.193-2.433-3.649-4.539-0.478-2.215-0.543-4.474-0.543-6.755 0.022-0.825 0-1.651 0-2.541z"></path>
<path d="M30.976 15.707c-0.543 0-1.021 0.022-1.477 0-1.759-0.109-3.497-0.174-5.234-0.369-2.585-0.304-4.865-1.238-6.32-3.584-0.695-1.129-1.108-2.367-1.216-3.671-0.217-2.172-0.282-4.366-0.434-6.538-0.022-0.369 0.065-0.521 0.478-0.5 2.541 0.109 5.083 0.152 7.623 0.326 0.847 0.065 1.694 0.326 2.52 0.608 2.15 0.739 3.106 2.476 3.54 4.561 0.5 2.367 0.543 4.779 0.543 7.189-0.022 0.63-0.022 1.281-0.022 1.976z"></path>
<path d="M1.046 15.794c0-1.716-0.087-3.323 0.022-4.93 0.109-1.586 0.282-3.171 0.586-4.735 0.5-2.498 2.085-4.018 4.561-4.518 1.26-0.261 2.541-0.434 3.801-0.5 1.846-0.087 3.714-0.022 5.604-0.022 0.022 0.043 0.065 0.109 0.065 0.174-0.022 2.65-0.043 5.278-0.63 7.884-0.695 3.041-2.52 5.017-5.56 5.821-2.737 0.739-5.582 0.586-8.449 0.825z"></path>
</symbol>
<symbol id="kedr-icon-odnoklassniki" viewBox="0 0 32 32">
<path d="M19.34 23.252l4.62 4.62c0.944 0.94 0.944 2.474 0 3.42-0.946 0.944-2.48 0.944-3.42 0l-4.54-4.54-4.562 4.54c-0.46 0.472-1.080 0.708-1.7 0.708s-1.24-0.236-1.7-0.708c-0.96-0.946-0.96-2.48 0-3.42l4.62-4.62c-1.682-0.382-3.302-1.046-4.794-1.986-1.132-0.712-1.472-2.204-0.76-3.336 0.71-1.132 2.204-1.474 3.336-0.76 3.38 2.126 7.736 2.126 11.12 0 1.132-0.714 2.624-0.372 3.336 0.76 0.712 1.13 0.372 2.624-0.756 3.336-1.496 0.938-3.12 1.606-4.8 1.986zM16 16.516c-4.554 0-8.26-3.704-8.26-8.256 0-4.556 3.706-8.26 8.26-8.26s8.26 3.704 8.26 8.26c0 4.552-3.704 8.256-8.26 8.256zM16 4.84c-1.884 0-3.42 1.534-3.42 3.42 0 1.884 1.536 3.42 3.42 3.42 1.886 0 3.42-1.536 3.42-3.42 0-1.886-1.534-3.42-3.42-3.42z"></path>
</symbol>
<symbol id="kedr-icon-google" viewBox="0 0 32 32">
<path d="M16.319 13.713v5.487h9.075c-0.369 2.356-2.744 6.9-9.075 6.9-5.463 0-9.919-4.525-9.919-10.1s4.456-10.1 9.919-10.1c3.106 0 5.188 1.325 6.375 2.469l4.344-4.181c-2.788-2.612-6.4-4.188-10.719-4.188-8.844 0-16 7.156-16 16s7.156 16 16 16c9.231 0 15.363-6.494 15.363-15.631 0-1.050-0.113-1.85-0.25-2.65l-15.113-0.006z"></path>
</symbol>
<symbol id="kedr-icon-instagram" viewBox="0 0 32 32">
<path d="M16 0c-4.346 0-4.89 0.020-6.596 0.096-1.704 0.080-2.864 0.348-3.884 0.744-1.052 0.408-1.946 0.956-2.834 1.846-0.89 0.888-1.44 1.78-1.846 2.834-0.396 1.020-0.666 2.18-0.744 3.884-0.080 1.706-0.096 2.25-0.096 6.596s0.020 4.89 0.096 6.596c0.080 1.704 0.348 2.866 0.744 3.884 0.408 1.052 0.956 1.946 1.846 2.834 0.888 0.89 1.78 1.44 2.834 1.846 1.020 0.396 2.18 0.666 3.884 0.744 1.706 0.080 2.25 0.096 6.596 0.096s4.89-0.020 6.596-0.096c1.704-0.080 2.866-0.348 3.884-0.744 1.052-0.408 1.946-0.956 2.834-1.846 0.89-0.888 1.44-1.78 1.846-2.834 0.396-1.020 0.666-2.18 0.744-3.884 0.080-1.706 0.096-2.25 0.096-6.596s-0.020-4.89-0.096-6.596c-0.080-1.704-0.348-2.866-0.744-3.884-0.408-1.052-0.956-1.946-1.846-2.834-0.888-0.89-1.78-1.44-2.834-1.846-1.020-0.396-2.18-0.666-3.884-0.744-1.706-0.080-2.25-0.096-6.596-0.096zM16 2.88c4.272 0 4.78 0.020 6.466 0.096 1.56 0.072 2.406 0.332 2.97 0.552 0.748 0.29 1.28 0.636 1.84 1.196s0.906 1.092 1.196 1.84c0.22 0.564 0.48 1.41 0.552 2.97 0.076 1.688 0.094 2.194 0.094 6.466s-0.020 4.78-0.1 6.466c-0.080 1.56-0.34 2.406-0.56 2.97-0.3 0.748-0.64 1.28-1.2 1.84s-1.1 0.906-1.84 1.196c-0.56 0.22-1.42 0.48-2.98 0.552-1.7 0.076-2.2 0.094-6.48 0.094s-4.78-0.020-6.48-0.1c-1.56-0.080-2.42-0.34-2.98-0.56-0.76-0.3-1.28-0.64-1.84-1.2s-0.92-1.1-1.2-1.84c-0.22-0.56-0.48-1.42-0.56-2.98-0.060-1.68-0.080-2.2-0.080-6.46s0.020-4.78 0.080-6.48c0.080-1.56 0.34-2.42 0.56-2.98 0.28-0.76 0.64-1.28 1.2-1.84s1.080-0.92 1.84-1.2c0.56-0.22 1.4-0.48 2.96-0.56 1.7-0.060 2.2-0.080 6.48-0.080zM16 7.784c-4.54 0-8.216 3.68-8.216 8.216 0 4.54 3.68 8.216 8.216 8.216 4.54 0 8.216-3.68 8.216-8.216 0-4.54-3.68-8.216-8.216-8.216zM16 21.334c-2.946 0-5.334-2.388-5.334-5.334s2.388-5.334 5.334-5.334c2.946 0 5.334 2.388 5.334 5.334s-2.388 5.334-5.334 5.334zM26.46 7.46c0 1.060-0.86 1.92-1.92 1.92s-1.92-0.86-1.92-1.92 0.86-1.92 1.92-1.92 1.92 0.86 1.92 1.92z"></path>
</symbol>
<symbol id="kedr-icon-twitter" viewBox="0 0 32 32">
<path d="M32 6c-1.067 0.533-2.4 0.8-3.733 1.067 1.333-0.8 2.4-2.133 2.933-3.467-1.333 0.8-2.667 1.333-4.267 1.6-1.067-1.333-2.933-2.133-4.8-2.133-3.733 0-6.667 2.933-6.667 6.4 0 0.533 0 1.067 0.267 1.333-5.333-0.267-10.4-2.933-13.6-6.667-0.533 1.067-0.8 2.133-0.8 3.467 0 2.133 1.067 4.267 2.933 5.333-1.067 0-2.133-0.267-2.933-0.8v0c0 3.2 2.133 5.6 5.333 6.4-0.533 0.267-1.067 0.267-1.6 0.267s-0.8 0-1.333 0c0.8 2.667 3.2 4.533 6.133 4.533-2.133 1.6-5.067 2.667-8.267 2.667-0.533 0-1.067 0-1.6 0 2.933 1.867 6.4 2.933 10.133 2.933 12 0 18.667-9.867 18.667-18.4 0-0.267 0-0.533 0-0.8 1.067-1.067 2.133-2.4 3.2-3.733v0z"></path>
</symbol>
<symbol id="kedr-icon-telegram" viewBox="0 0 32 32">
<path d="M31.48 3.733c-0.112-0.325-0.245-0.413-0.451-0.493-0.454-0.171-1.224 0.088-1.224 0.088s-27.235 9.789-28.79 10.872c-0.336 0.234-0.448 0.368-0.502 0.528-0.269 0.771 0.57 1.11 0.57 1.11l7.019 2.288s0.261 0.037 0.355-0.024c1.597-1.008 16.064-10.144 16.901-10.448 0.133-0.042 0.229 0.003 0.203 0.096-0.336 1.168-12.901 12.339-12.901 12.339s-0.048 0.059-0.080 0.128l-0.016-0.008-0.656 6.963s-0.272 2.133 1.861 0c1.504-1.504 2.96-2.762 3.69-3.376 2.416 1.664 5.014 3.51 6.134 4.475 0.563 0.485 1.034 0.563 1.424 0.547 1.062-0.037 1.36-1.206 1.36-1.206s4.962-19.974 5.128-22.653c0.016-0.261 0.038-0.427 0.040-0.608 0-0.25-0.024-0.501-0.064-0.619z"></path>
</symbol>
<symbol id="kedr-icon-yandex" viewBox="0 0 32 32">
<path d="M5.67 0c-3.141 0-5.67 2.529-5.67 5.67v20.66c0 3.141 2.529 5.67 5.67 5.67h15.206l11.124-15.996-11.124-16.004h-15.206zM14.185 5.842h3.613c0.222 0 0.349 0.081 0.349 0.272v19.912c0 0.136-0.064 0.217-0.254 0.217h-1.965c-0.126 0-0.221-0.109-0.221-0.19v-7.372h-1.586l-4.405 7.372c-0.063 0.136-0.19 0.19-0.38 0.19h-2.25c-0.253 0-0.411-0.19-0.253-0.435l4.848-7.508c-2.598-0.979-4.056-2.965-4.056-5.658 0-4.488 3.011-6.8 6.56-6.8zM14.090 7.582c-1.933 0-3.835 1.387-3.835 4.788 0 3.264 2.028 4.57 4.12 4.57h1.332v-9.358h-1.617z"></path>
</symbol>
</defs>
</svg>
