<svg width="346" height="619" viewBox="0 0 346 619" xmlns="http://www.w3.org/2000/svg">
    <g fill="none" fill-rule="evenodd" opacity=".4">
        <path d="M0 439h346v180H0z"/>
        <path d="m202.708 379.937-79.148-12.993c-1.878-.308-3.267-1.722-3.352-3.41-.084-1.69 1.159-3.207 3-3.66l71.044-17.518-100.63-20.68c-1.953-.4-3.292-1.991-3.167-3.763.126-1.772 1.678-3.203 3.672-3.387l133.294-12.227H4.103c-2.16 0-3.95-1.481-4.094-3.388-.144-1.907 1.406-3.587 3.546-3.843l277.198-33.082H37.328c-2.105 0-3.868-1.41-4.082-3.262-.214-1.854 1.19-3.55 3.251-3.927l187.507-34.317H53.942c-2.123 0-3.895-1.432-4.087-3.304-.191-1.872 1.262-3.563 3.35-3.9l140.952-22.742-97.98-4.626c-2.056-.098-3.714-1.53-3.872-3.35-.158-1.818 1.233-3.458 3.249-3.833l110.528-20.52-84.45-11.178c-1.991-.263-3.473-1.767-3.497-3.548-.023-1.782 1.417-3.317 3.4-3.622l71.457-11.011-86.685-4.13c-1.985-.096-3.61-1.438-3.852-3.185s.966-3.397 2.868-3.915l82.973-22.562-81.533 4.133c-2.017.092-3.794-1.093-4.237-2.826-.442-1.733.595-3.493 2.452-4.163l73.865-26.674H157.31c-1.858 0-3.485-1.105-3.965-2.694-.48-1.59.308-3.266 1.918-4.087l20.572-10.48H148.86c-2.267 0-4.104-1.624-4.104-3.631 0-2.007 1.837-3.632 4.104-3.632h42.332c1.858 0 3.485 1.105 3.964 2.694.48 1.59-.307 3.266-1.918 4.086l-20.571 10.48h27.097c1.963 0 3.65 1.23 4.028 2.933.376 1.704-.661 3.406-2.478 4.062l-70.428 25.432 90.794-4.603c2.064-.096 3.907 1.175 4.274 2.984.367 1.81-.85 3.574-2.834 4.115L129.8 118.56l99.72 4.751c2.083.1 3.751 1.568 3.876 3.413.123 1.844-1.337 3.477-3.393 3.793l-82.071 12.646 81.973 10.85c1.965.26 3.437 1.729 3.496 3.486.058 1.759-1.316 3.3-3.26 3.662l-102.19 18.972 101.567 4.795c2.078.099 3.744 1.559 3.876 3.398.133 1.838-1.311 3.473-3.359 3.803L99.338 213.216h164.78c2.105 0 3.868 1.41 4.081 3.263.214 1.854-1.19 3.549-3.25 3.926L77.441 254.721h264.455c2.16 0 3.95 1.482 4.094 3.39.144 1.906-1.406 3.587-3.546 3.842L65.249 295.035h241.576c2.184 0 3.985 1.515 4.098 3.445.112 1.93-1.503 3.6-3.675 3.8l-187.866 17.233 92.387 18.985c1.826.375 3.134 1.799 3.174 3.459.041 1.66-1.194 3.133-3.002 3.577l-69.46 17.128 61.723 10.133c2.228.366 3.7 2.262 3.287 4.234-.366 1.749-2.09 2.971-4.03 2.971-.248 0-.5-.02-.753-.063Z" fill="#34815E"/>
        <path d="M172.874 434c-1.876 0-3.573-1.146-4.012-2.837-.498-1.92-12.164-47.297-10.289-71.009.908-11.5.905-97.655-.01-180.757-1.115-101.274-3.178-168.208-5.386-174.683-.657-1.932.574-3.972 2.753-4.557 2.173-.584 4.477.508 5.137 2.442 5.823 17.087 7.332 337.769 5.726 358.067-1.787 22.624 9.982 68.401 10.101 68.86.51 1.968-.875 3.928-3.093 4.38-.31.063-.621.094-.927.094M295.88 439H46.12c-2.276 0-4.12-1.119-4.12-2.5 0-1.38 1.844-2.5 4.12-2.5h249.76c2.276 0 4.12 1.12 4.12 2.5 0 1.381-1.844 2.5-4.12 2.5" fill="#34815E"/>
    </g>
</svg>