<?xml version="1.0" encoding="UTF-8"?>
<svg width="59" height="98" viewBox="0 0 59 98" xmlns="http://www.w3.org/2000/svg" xmlns:xlink="http://www.w3.org/1999/xlink">
    <path id="Path" fill="#34815e" fill-rule="evenodd" stroke="none" d="M 34.694199 65 C 34.652 65 34.609001 64.996597 34.565899 64.989197 L 21.0695 62.7663 C 20.7493 62.713501 20.5124 62.4715 20.4979 62.182701 C 20.483601 61.8937 20.695499 61.634102 21.009399 61.556599 L 33.123901 58.559502 L 15.9644 55.0214 C 15.6315 54.952801 15.403 54.6805 15.4245 54.377399 C 15.4459 54.074299 15.7105 53.829399 16.050501 53.797901 L 38.7798 51.706001 L 0.699702 51.706001 C 0.331386 51.706001 0.026165 51.452599 0.001584 51.126301 C -0.022997 50.799999 0.241213 50.5126 0.606243 50.4688 L 47.874001 44.8088 L 6.36522 44.8088 C 6.00624 44.8088 5.70562 44.5676 5.66908 44.250702 C 5.63267 43.933498 5.87203 43.643398 6.22352 43.578899 L 38.197201 37.7075 L 9.19818 37.7075 C 8.83618 37.7075 8.53398 37.462399 8.50125 37.1423 C 8.46865 36.821999 8.71643 36.5326 9.07265 36.474899 L 33.1077 32.584 L 16.4002 31.792404 C 16.0495 31.775696 15.7668 31.530701 15.7399 31.219398 C 15.713 30.908302 15.9501 30.627701 16.2939 30.563499 L 35.141102 27.052795 L 20.7409 25.140305 C 20.401199 25.095299 20.1486 24.838104 20.144501 24.533203 C 20.1404 24.228401 20.386 23.965897 20.724199 23.913605 L 32.9091 22.029701 L 18.127501 21.323097 C 17.7889 21.306702 17.511999 21.077103 17.470699 20.778198 C 17.4293 20.479202 17.635401 20.196899 17.9597 20.108299 L 32.108299 16.2481 L 18.2052 16.9552 C 17.861401 16.9711 17.5583 16.768295 17.4828 16.471802 C 17.407301 16.1754 17.584101 15.874199 17.9009 15.759499 L 30.496401 11.1959 L 26.824499 11.1959 C 26.5077 11.1959 26.2302 11.006699 26.1485 10.734901 C 26.0667 10.462898 26.200899 10.176102 26.4755 10.035698 L 29.9835 8.242798 L 25.3836 8.242798 C 24.997101 8.242798 24.683901 7.964699 24.683901 7.621399 C 24.683901 7.278099 24.997101 7 25.3836 7 L 32.602001 7 C 32.918999 7 33.196301 7.189117 33.278099 7.460983 C 33.359798 7.732849 33.2257 8.019638 32.951 8.160057 L 29.443199 9.952942 L 34.0639 9.952942 C 34.398499 9.952942 34.6861 10.163399 34.750702 10.454803 C 34.8148 10.7463 34.637901 11.037697 34.328098 11.149803 L 22.3188 15.500999 L 37.8009 14.713501 C 38.152802 14.697098 38.467098 14.914497 38.5298 15.224098 C 38.592201 15.5336 38.384899 15.835602 38.046501 15.928101 L 22.1334 20.269798 L 39.137699 21.082802 C 39.493 21.0998 39.7775 21.350998 39.798698 21.666595 C 39.819698 21.982201 39.570702 22.261597 39.2202 22.315598 L 25.2253 24.479202 L 39.203499 26.335701 C 39.538502 26.380096 39.7896 26.631302 39.799599 26.931999 C 39.809399 27.232903 39.575199 27.496597 39.243801 27.558502 L 21.8183 30.804504 L 39.137501 31.624901 C 39.491901 31.6418 39.775902 31.891502 39.798401 32.2061 C 39.820999 32.520699 39.574799 32.8004 39.2257 32.856903 L 16.9391 36.464802 L 45.037399 36.464802 C 45.3964 36.464802 45.696999 36.705799 45.733398 37.0229 C 45.769901 37.340099 45.530399 37.6301 45.1791 37.694698 L 13.2054 43.565899 L 58.300301 43.565899 C 58.668598 43.565899 58.973801 43.819401 58.998402 44.145699 C 59.022999 44.472 58.758801 44.759499 58.393799 44.803101 L 11.1263 50.4632 L 52.319801 50.4632 C 52.6922 50.4632 52.999401 50.722401 53.0186 51.052601 C 53.0378 51.3829 52.762402 51.668598 52.391998 51.702801 L 20.357 54.651199 L 36.110901 57.899399 C 36.422298 57.963501 36.645199 58.2071 36.6521 58.491199 C 36.659199 58.775101 36.448399 59.027199 36.140202 59.103199 L 24.2959 62.033699 L 34.820999 63.7672 C 35.200901 63.829899 35.4519 64.154297 35.3815 64.4916 C 35.318901 64.790901 35.024899 64.999702 34.694199 65"/>
    <path id="path1" fill="#34815e" fill-rule="evenodd" stroke="none" d="M 29.312401 74 C 28.999599 74 28.716801 73.804604 28.6436 73.516296 C 28.560699 73.188904 26.616301 65.451797 26.9289 61.408798 C 27.0802 59.448101 27.079599 44.757999 26.927099 30.588402 C 26.741301 13.320602 26.3974 1.907829 26.029499 0.803703 C 25.919901 0.474335 26.1252 0.12648 26.4883 0.026848 C 26.8505 -0.072777 27.2346 0.113457 27.3445 0.443085 C 28.315001 3.35656 28.5665 58.035 28.298901 61.495998 C 28.000999 65.3536 29.9625 73.158897 29.982401 73.237198 C 30.0674 73.572701 29.8365 73.906898 29.466801 73.984001 C 29.415199 73.994797 29.3633 74 29.312401 74"/>
    <path id="path2" fill="#34815e" fill-rule="evenodd" stroke="none" d="M 50.297401 75 L 7.70259 75 C 7.31453 75 7 74.776299 7 74.500099 C 7 74.223801 7.31453 74 7.70259 74 L 50.297401 74 C 50.6856 74 51 74.223801 51 74.500099 C 51 74.776299 50.6856 75 50.297401 75"/>
    <path id="path3" fill="#262626" fill-rule="evenodd" stroke="none" d="M 4.55927 88.505699 L 2.1247 88.505699 L 2.1247 94 L 0 94 L 0 81 L 2.1247 81 L 2.1247 86.494202 L 4.6036 86.494202 L 8.41038 81 L 10.6901 81 L 6.24134 87.2547 L 11 94 L 8.49905 94 L 4.55927 88.505699 Z"/>
    <path id="path4" fill="#262626" fill-rule="evenodd" stroke="none" d="M 17.420601 83.955597 C 16.7162 84.628304 16.303301 85.509499 16.1821 86.5989 L 23.9093 86.5989 C 23.7878 85.525703 23.375099 84.648598 22.6707 83.967598 C 21.966101 83.286903 21.091299 82.946198 20.0457 82.946198 C 19.000299 82.946198 18.125299 83.282799 17.420601 83.955597 M 25.9545 88.256699 L 16.181999 88.256699 C 16.3183 89.378304 16.7843 90.279503 17.5797 90.960197 C 18.3752 91.641502 19.363899 91.981598 20.545401 91.981598 C 21.985001 91.981598 23.1437 91.4692 24.0228 90.443604 L 25.227301 91.933502 C 24.6819 92.6064 24.0037 93.119202 23.193199 93.471397 C 22.3825 93.823997 21.477301 94 20.4774 94 C 19.2047 94 18.0758 93.723701 17.091101 93.170998 C 16.105801 92.618401 15.3446 91.845596 14.807 90.852303 C 14.2691 89.859001 14 88.737602 14 87.4879 C 14 86.254501 14.2616 85.141098 14.7844 84.147697 C 15.3071 83.154701 16.026501 82.381599 16.9433 81.829002 C 17.8598 81.276299 18.893801 81 20.0455 81 C 21.197001 81 22.223499 81.276299 23.124901 81.829002 C 24.026501 82.381599 24.7309 83.154701 25.2388 84.147697 C 25.746 85.141098 26 86.278603 26 87.560097 C 26 87.736603 25.984699 87.968498 25.9545 88.256699"/>
    <path id="path5" fill="#262626" fill-rule="evenodd" stroke="none" d="M 54.967201 91.1092 C 55.557301 90.744003 56.023602 90.231003 56.365898 89.569901 C 56.708401 88.909302 56.879799 88.151497 56.879799 87.296097 C 56.879799 86.441399 56.708401 85.683502 56.365898 85.022499 C 56.023602 84.362 55.557301 83.852898 54.967201 83.495003 C 54.3769 83.137497 53.7103 82.958801 52.966999 82.958801 C 52.2383 82.958801 51.579201 83.141701 50.988998 83.506699 C 50.398899 83.8722 49.932301 84.381302 49.590199 85.034103 C 49.247601 85.687103 49.076401 86.441399 49.076401 87.296097 C 49.076401 88.151497 49.243801 88.909302 49.578999 89.569901 C 49.9142 90.231003 50.380501 90.744003 50.978001 91.1092 C 51.575298 91.474403 52.2383 91.657097 52.966999 91.657097 C 53.7103 91.657097 54.3769 91.474403 54.967201 91.1092 M 56.158501 81.792801 C 57.047001 82.321503 57.743099 83.060097 58.245701 84.008102 C 58.7486 84.956703 59 86.052696 59 87.296097 C 59 88.540199 58.7486 89.6399 58.245701 90.596199 C 57.743099 91.5522 57.047001 92.2948 56.158501 92.823196 C 55.269299 93.351898 54.263802 93.615898 53.142101 93.615898 C 52.311298 93.615898 51.549702 93.445099 50.858002 93.102898 C 50.1656 92.761101 49.578999 92.263397 49.098202 91.610603 L 49.098202 98 L 47 98 L 47 81.116501 L 49.010799 81.116501 L 49.010799 83.075302 C 49.4772 82.391502 50.0672 81.874496 50.781399 81.524696 C 51.495201 81.174797 52.282101 81 53.142101 81 C 54.263802 81 55.269299 81.264603 56.158501 81.792801"/>
    <path id="path6" fill="#262626" fill-rule="evenodd" stroke="none" d="M 31.885 92.045799 L 36.118 83.6492 L 40.174801 92.045799 L 31.885 92.045799 Z M 35.203602 81 L 29 94 L 43 94 L 37.082901 81 L 35.203602 81 Z"/>
</svg>
