<?xml version="1.0" encoding="UTF-8"?>
<svg viewBox="0 0 104 38" fill="none" xmlns="http://www.w3.org/2000/svg">
    <path fill-rule="evenodd" clip-rule="evenodd" d="M21.6409 33C21.6191 33.0001 21.5974 32.9985 21.5759 32.995L14.7129 31.883C14.5499 31.857 14.4299 31.736 14.4229 31.591C14.4149 31.447 14.5229 31.317 14.6829 31.278L20.8429 29.78L12.1179 28.01C11.9479 27.976 11.8319 27.84 11.8429 27.689C11.8529 27.537 11.9879 27.415 12.1609 27.399L23.7189 26.353H4.35586C4.16886 26.353 4.01286 26.226 4.00086 26.063C3.98786 25.9 4.12286 25.756 4.30786 25.734L28.3429 22.904H7.23686C7.05386 22.904 6.90086 22.784 6.88286 22.625C6.86386 22.467 6.98586 22.322 7.16486 22.289L23.4219 19.354H8.67687C8.49287 19.354 8.33887 19.231 8.32287 19.071C8.30587 18.911 8.43286 18.766 8.61286 18.737L20.8339 16.792L12.3389 16.396C12.1609 16.388 12.0169 16.266 12.0029 16.11C11.9899 15.954 12.1099 15.814 12.2849 15.782L21.8679 14.026L14.5459 13.07C14.3729 13.048 14.2449 12.919 14.2429 12.767C14.2409 12.614 14.3659 12.483 14.5379 12.457L20.7329 11.515L13.2169 11.162C13.0449 11.153 12.9039 11.039 12.8829 10.889C12.8629 10.739 12.9669 10.599 13.1319 10.554L20.3259 8.624L13.2559 8.978C13.0819 8.986 12.9279 8.884 12.8899 8.736C12.8509 8.588 12.9409 8.437 13.1019 8.38L19.5069 6.098H17.6399C17.4789 6.098 17.3369 6.003 17.2959 5.868C17.2539 5.731 17.3229 5.588 17.4619 5.518L19.2459 4.621H16.9059C16.7099 4.621 16.5509 4.482 16.5509 4.311C16.5509 4.139 16.7109 4 16.9069 4H20.5769C20.7379 4 20.8789 4.095 20.9209 4.23C20.9629 4.366 20.8939 4.51 20.7549 4.58L18.9709 5.476H21.3209C21.4909 5.476 21.6369 5.582 21.6699 5.727C21.7019 5.873 21.6119 6.019 21.4549 6.075L15.3489 8.25L23.2209 7.857C23.3999 7.849 23.5599 7.957 23.5909 8.112C23.6229 8.267 23.5179 8.418 23.3459 8.464L15.2539 10.634L23.9009 11.041C24.0809 11.05 24.2259 11.176 24.2369 11.333C24.2469 11.491 24.1209 11.631 23.9419 11.658L16.8259 12.74L23.9339 13.668C24.1039 13.69 24.2319 13.816 24.2369 13.966C24.2419 14.116 24.1229 14.248 23.9539 14.279L15.0939 15.902L23.8999 16.312C24.0799 16.321 24.2249 16.446 24.2359 16.603C24.2479 16.76 24.1229 16.9 23.9459 16.928L12.6119 18.732H26.8999C27.0829 18.732 27.2359 18.852 27.2539 19.012C27.2729 19.17 27.1509 19.315 26.9719 19.347L10.7149 22.283H33.6449C33.8309 22.283 33.9869 22.41 33.9989 22.573C34.0119 22.736 33.8769 22.88 33.6919 22.902L9.65687 25.732H30.6029C30.7929 25.732 30.9489 25.862 30.9589 26.026C30.9689 26.191 30.8289 26.334 30.6399 26.351L14.3509 27.826L22.3609 29.45C22.5199 29.482 22.6329 29.604 22.6369 29.746C22.6399 29.888 22.5329 30.014 22.3769 30.052L16.3539 31.517L21.7059 32.384C21.8989 32.415 22.0259 32.577 21.9909 32.746C21.9589 32.896 21.8089 33 21.6409 33Z" fill="#34815E"/>
    <path fill-rule="evenodd" clip-rule="evenodd" d="M18.6559 37C18.4999 37 18.3579 36.902 18.3219 36.758C18.2799 36.594 17.3079 32.726 17.4639 30.704C17.5399 29.724 17.5399 22.379 17.4639 15.294C17.3709 6.66 17.1989 0.954003 17.0139 0.402003C16.9599 0.237003 17.0629 0.0630033 17.2439 0.0130033C17.4249 -0.0369967 17.6169 0.0570033 17.6719 0.222003C18.1579 1.678 18.2829 29.018 18.1489 30.748C17.9999 32.677 18.9809 36.579 18.9909 36.618C19.0339 36.786 18.9179 36.953 18.7329 36.992C18.7075 36.9973 18.6817 37 18.6559 37Z" fill="#34815E"/>
    <path fill-rule="evenodd" clip-rule="evenodd" d="M28.649 38H7.35C7.157 38 7 37.776 7 37.5C7 37.224 7.157 37 7.351 37H28.65C28.844 37 29.001 37.224 29.001 37.5C29.001 37.776 28.843 38 28.649 38Z" fill="#34815E"/>
    <path fill-rule="evenodd" clip-rule="evenodd" d="M45.5593 21.5057H43.1247V27H41V14H43.1247V19.4942H45.6036L49.4104 14H51.6901L47.2413 20.2547L52 27H49.4991L45.5593 21.5057Z" fill="#262626"/>
    <path fill-rule="evenodd" clip-rule="evenodd" d="M58.4206 16.9556C57.7162 17.6283 57.3033 18.5095 57.1821 19.5989H64.9093C64.7878 18.5257 64.3751 17.6486 63.6707 16.9676C62.9661 16.2869 62.0913 15.9462 61.0457 15.9462C60.0003 15.9462 59.1253 16.2828 58.4206 16.9556M66.9545 21.2567H57.182C57.3183 22.3783 57.7843 23.2795 58.5797 23.9602C59.3752 24.6415 60.3639 24.9816 61.5454 24.9816C62.985 24.9816 64.1437 24.4692 65.0228 23.4436L66.2273 24.9335C65.6819 25.6064 65.0037 26.1192 64.1932 26.4714C63.3825 26.824 62.4773 27 61.4774 27C60.2047 27 59.0758 26.7237 58.0911 26.171C57.1058 25.6184 56.3446 24.8456 55.807 23.8523C55.2691 22.859 55 21.7376 55 20.4879C55 19.2545 55.2616 18.1411 55.7844 17.1477C56.3071 16.1547 57.0265 15.3816 57.9433 14.829C58.8598 14.2763 59.8938 14 61.0455 14C62.197 14 63.2235 14.2763 64.1249 14.829C65.0265 15.3816 65.7309 16.1547 66.2388 17.1477C66.746 18.1411 67 19.2786 67 20.5601C67 20.7366 66.9847 20.9685 66.9545 21.2567" fill="#262626"/>
    <path fill-rule="evenodd" clip-rule="evenodd" d="M95.9672 24.1092C96.5573 23.744 97.0236 23.231 97.3659 22.5699C97.7084 21.9093 97.8798 21.1515 97.8798 20.2961C97.8798 19.4414 97.7084 18.6835 97.3659 18.0225C97.0236 17.362 96.5573 16.8529 95.9672 16.495C95.3769 16.1375 94.7103 15.9588 93.967 15.9588C93.2383 15.9588 92.5792 16.1417 91.989 16.5067C91.3989 16.8722 90.9323 17.3813 90.5902 18.0341C90.2476 18.6871 90.0764 19.4414 90.0764 20.2961C90.0764 21.1515 90.2438 21.9093 90.579 22.5699C90.9142 23.231 91.3805 23.744 91.978 24.1092C92.5753 24.4744 93.2383 24.6571 93.967 24.6571C94.7103 24.6571 95.3769 24.4744 95.9672 24.1092M97.1585 14.7928C98.047 15.3215 98.7431 16.0601 99.2457 17.0081C99.7486 17.9567 100 19.0527 100 20.2961C100 21.5402 99.7486 22.6399 99.2457 23.5962C98.7431 24.5522 98.047 25.2948 97.1585 25.8232C96.2693 26.3519 95.2638 26.6159 94.1421 26.6159C93.3113 26.6159 92.5497 26.4451 91.858 26.1029C91.1656 25.7611 90.579 25.2634 90.0982 24.6106V31H88V14.1165H90.0108V16.0753C90.4772 15.3915 91.0672 14.8745 91.7814 14.5247C92.4952 14.1748 93.2821 14 94.1421 14C95.2638 14 96.2693 14.2646 97.1585 14.7928" fill="#262626"/>
    <path fill-rule="evenodd" clip-rule="evenodd" d="M72.885 25.0458L77.118 16.6492L81.1748 25.0458H72.885ZM76.2036 14L70 27H84L78.0829 14H76.2036Z" fill="#262626"/>
</svg>
